<?xml version="1.0" encoding="UTF-8" standalone="no"?>
<svg width="35px" height="35px" viewBox="0 0 35 35" version="1.1" xmlns="http://www.w3.org/2000/svg" xmlns:xlink="http://www.w3.org/1999/xlink">
    <!-- Generator: Sketch 3.7 (28169) - http://www.bohemiancoding.com/sketch -->
    <title>Combined Shape</title>
    <desc>Created with Sketch.</desc>
    <defs></defs>
    <g id="15.-Search-Text" stroke="none" stroke-width="1" fill="none" fill-rule="evenodd" fill-opacity="0.7">
        <g id="15.-Search-Text-2560" transform="translate(-1859.000000, -1760.000000)" fill="#FFFFFF">
            <path d="M1876.5,1795 C1886.16498,1795 1894,1787.16498 1894,1777.5 C1894,1767.83502 1886.16498,1760 1876.5,1760 C1866.83502,1760 1859,1767.83502 1859,1777.5 C1859,1787.16498 1866.83502,1795 1876.5,1795 Z M1877.98476,1787 L1873.99411,1787 L1873.99411,1777.4988 L1872,1777.4988 L1872,1774.22501 L1873.99411,1774.22501 L1873.99411,1772.25953 C1873.99411,1769.58893 1875.11949,1768 1878.31884,1768 L1880.98171,1768 L1880.98171,1771.27499 L1879.31742,1771.27499 C1878.07194,1771.27499 1877.98964,1771.73249 1877.98964,1772.58631 L1877.98415,1774.22501 L1881,1774.22501 L1880.64702,1777.4988 L1877.98415,1777.4988 L1877.98415,1787 L1877.98476,1787 Z" id="Combined-Shape"></path>
        </g>
    </g>
</svg>