<?xml version="1.0" encoding="UTF-8" standalone="no"?>
<svg width="16px" height="14px" viewBox="0 0 16 14" version="1.1" xmlns="http://www.w3.org/2000/svg" xmlns:xlink="http://www.w3.org/1999/xlink">
    <!-- Generator: Sketch 3.7 (28169) - http://www.bohemiancoding.com/sketch -->
    <title>Shape</title>
    <desc>Created with Sketch.</desc>
    <defs></defs>
    <g id="3.-Article" stroke="none" stroke-width="1" fill="none" fill-rule="evenodd">
        <g id="3.-Article-768" transform="translate(-205.000000, -408.000000)" fill="#FFFFFF">
            <path d="M219.115161,410.192267 C219.793215,409.759623 220.313494,409.0736 220.557669,408.256382 C219.922815,408.657981 219.221283,408.948414 218.472795,409.105648 C217.875506,408.424633 217.021835,408 216.077068,408 C214.264542,408 212.795739,409.567336 212.795739,411.500217 C212.795739,411.774626 212.822974,412.042024 212.879321,412.297405 C210.152081,412.151187 207.733815,410.759112 206.113811,408.639954 C205.831132,409.158727 205.669601,409.759623 205.669601,410.400578 C205.669601,411.614387 206.249046,412.685984 207.129952,413.314921 C206.59183,413.296894 206.085637,413.137657 205.642367,412.877269 L205.642367,412.920333 C205.642367,414.616862 206.773082,416.031971 208.276633,416.352448 C208.000528,416.434571 207.711275,416.475632 207.410753,416.475632 C207.199448,416.475632 206.992839,416.454601 206.793743,416.413539 C207.210718,417.803611 208.423138,418.817122 209.860011,418.844162 C208.735869,419.783562 207.320596,420.342395 205.783236,420.342395 C205.518401,420.342395 205.256383,420.327373 205,420.294323 C206.452838,421.286802 208.178024,421.866667 210.031872,421.866667 C216.070494,421.866667 219.370605,416.532717 219.370605,411.906823 C219.370605,411.754596 219.368727,411.60337 219.362153,411.454148 C220.00358,410.960412 220.561425,410.343493 221,409.641446 C220.411164,409.919861 219.778189,410.108142 219.115161,410.192267 Z" id="Shape"></path>
        </g>
    </g>
</svg>