<?xml version="1.0" encoding="UTF-8" standalone="no"?>
<svg width="35px" height="35px" viewBox="0 0 35 35" version="1.1" xmlns="http://www.w3.org/2000/svg" xmlns:xlink="http://www.w3.org/1999/xlink">
    <!-- Generator: Sketch 3.7 (28169) - http://www.bohemiancoding.com/sketch -->
    <title>Combined Shape</title>
    <desc>Created with Sketch.</desc>
    <defs></defs>
    <g id="15.-Search-Text" stroke="none" stroke-width="1" fill="none" fill-rule="evenodd" fill-opacity="0.7">
        <g id="15.-Search-Text-2560" transform="translate(-1904.000000, -1760.000000)" fill="#FFFFFF">
            <path d="M1921.5,1795 C1931.16498,1795 1939,1787.16498 1939,1777.5 C1939,1767.83502 1931.16498,1760 1921.5,1760 C1911.83502,1760 1904,1767.83502 1904,1777.5 C1904,1787.16498 1911.83502,1795 1921.5,1795 Z M1928.11516,1773.19227 C1928.79321,1772.75962 1929.31349,1772.0736 1929.55767,1771.25638 C1928.92282,1771.65798 1928.22128,1771.94841 1927.47279,1772.10565 C1926.87551,1771.42463 1926.02183,1771 1925.07707,1771 C1923.26454,1771 1921.79574,1772.56734 1921.79574,1774.50022 C1921.79574,1774.77463 1921.82297,1775.04202 1921.87932,1775.2974 C1919.15208,1775.15119 1916.73381,1773.75911 1915.11381,1771.63995 C1914.83113,1772.15873 1914.6696,1772.75962 1914.6696,1773.40058 C1914.6696,1774.61439 1915.24905,1775.68598 1916.12995,1776.31492 C1915.59183,1776.29689 1915.08564,1776.13766 1914.64237,1775.87727 L1914.64237,1775.92033 C1914.64237,1777.61686 1915.77308,1779.03197 1917.27663,1779.35245 C1917.00053,1779.43457 1916.71128,1779.47563 1916.41075,1779.47563 C1916.19945,1779.47563 1915.99284,1779.4546 1915.79374,1779.41354 C1916.21072,1780.80361 1917.42314,1781.81712 1918.86001,1781.84416 C1917.73587,1782.78356 1916.3206,1783.34239 1914.78324,1783.34239 C1914.5184,1783.34239 1914.25638,1783.32737 1914,1783.29432 C1915.45284,1784.2868 1917.17802,1784.86667 1919.03187,1784.86667 C1925.07049,1784.86667 1928.37061,1779.53272 1928.37061,1774.90682 C1928.37061,1774.7546 1928.36873,1774.60337 1928.36215,1774.45415 C1929.00358,1773.96041 1929.56143,1773.34349 1930,1772.64145 C1929.41116,1772.91986 1928.77819,1773.10814 1928.11516,1773.19227 Z" id="Combined-Shape"></path>
        </g>
    </g>
</svg>