<?xml version="1.0" encoding="UTF-8" standalone="no"?>
<svg width="20px" height="12px" viewBox="0 0 20 12" version="1.1" xmlns="http://www.w3.org/2000/svg" xmlns:xlink="http://www.w3.org/1999/xlink">
    <!-- Generator: Sketch 3.7 (28169) - http://www.bohemiancoding.com/sketch -->
    <title>Fill 1</title>
    <desc>Created with Sketch.</desc>
    <defs></defs>
    <g id="3.-Article" stroke="none" stroke-width="1" fill="none" fill-rule="evenodd">
        <g id="3.-Article-768" transform="translate(-53.000000, -408.000000)" fill="#FFFFFF">
            <path d="M72.6612538,418.291528 C72.3171367,417.659711 71.6591633,416.883917 70.6887594,415.964307 L70.6578649,415.932636 C70.196824,415.493434 69.9176646,415.20548 69.8007408,415.058433 C69.5871728,414.777589 69.539009,414.492868 69.6559328,414.205076 C69.7387934,413.987252 70.0482136,413.527852 70.5854609,412.825258 C70.8676306,412.453439 71.0916552,412.15482 71.2562674,411.93021 C72.4476857,410.314955 72.9638614,409.282879 72.8054281,408.833497 L72.7441144,408.728625 C72.7026049,408.665605 72.5962961,408.607433 72.4242376,408.555077 C72.252179,408.502076 72.0317983,408.493188 71.7632539,408.528577 L68.7888274,408.549422 C68.741139,408.532455 68.6719037,408.533586 68.5827057,408.555077 C68.4930325,408.575923 68.447879,408.586587 68.447879,408.586587 L68.3965466,408.61325 L68.3556708,408.64476 C68.3209739,408.665605 68.2832668,408.702124 68.2417573,408.755126 C68.2008815,408.807643 68.1663431,408.86937 68.1390925,408.9395 C67.8147796,409.789141 67.4472144,410.578832 67.0337035,411.309058 C66.7787844,411.744543 66.5447784,412.122018 66.3313688,412.441481 C66.1178007,412.760783 65.9389295,412.996382 65.7947552,413.147145 C65.6499472,413.29807 65.5193982,413.419263 65.402316,413.510077 C65.2847585,413.601698 65.195719,413.640157 65.1337716,413.62626 C65.0718241,413.611717 65.0130454,413.59782 64.958069,413.583923 C64.8614247,413.520903 64.7841093,413.434937 64.7259643,413.325864 C64.6671855,413.217275 64.6275772,413.080247 64.6071393,412.91494 C64.5867014,412.750118 64.5743436,412.608081 64.5705412,412.488827 C64.567531,412.369574 64.5692738,412.200389 64.5760864,411.983212 C64.582899,411.765388 64.5867014,411.617695 64.5867014,411.540778 C64.5867014,411.273669 64.5916129,410.983938 64.6015942,410.671585 C64.6120507,410.359069 64.6207646,410.111675 64.6275772,409.92924 C64.6343898,409.746804 64.6380338,409.553704 64.6380338,409.349778 C64.6380338,409.146497 64.625676,408.986846 64.6015942,408.870663 C64.5779876,408.755126 64.5415479,408.642821 64.4932258,408.533586 C64.4449036,408.424997 64.3744008,408.340486 64.2815589,408.281182 C64.188717,408.221232 64.0736944,408.173886 63.9361744,408.138498 C63.5711441,408.054471 63.1063008,408.009064 62.5419614,408.00147 C61.2615036,407.987573 60.438918,408.072246 60.0737293,408.254681 C59.9289213,408.331598 59.7983723,408.437117 59.6814485,408.570267 C59.5577121,408.724909 59.5402844,408.80942 59.6294824,408.823317 C60.0428348,408.886499 60.3349858,409.037424 60.5076781,409.275931 L60.5694671,409.402779 C60.6177892,409.493754 60.6661114,409.655344 60.7137998,409.886903 C60.7619635,410.118623 60.7930164,410.374905 60.8064832,410.655749 C60.8411801,411.168313 60.8411801,411.60703 60.8064832,411.972547 C60.7725785,412.337256 60.7397828,412.621977 60.7087299,412.825258 C60.6778354,413.029184 60.6314145,413.193845 60.5694671,413.320693 C60.5076781,413.447056 60.4661685,413.523973 60.4450969,413.552413 C60.424659,413.580207 60.4073898,413.59782 60.3937645,413.604768 C60.3040913,413.640157 60.2112494,413.65777 60.1146051,413.65777 C60.018753,413.65777 59.9016708,413.608647 59.7636754,413.510077 C59.6263137,413.411668 59.4834069,413.276579 59.3354302,413.104162 C59.1876119,412.932554 59.0204648,412.692107 58.8341473,412.382824 C58.6484635,412.074025 58.4561255,411.709316 58.2561827,411.287566 L58.0909367,410.982161 C57.9874798,410.785829 57.8464742,410.499814 57.667603,410.123633 C57.4887318,409.748097 57.3302985,409.385166 57.1929369,409.033546 C57.1378021,408.886499 57.0549415,408.774194 56.9446719,408.696469 L56.8933395,408.664959 C56.8586427,408.637165 56.8036663,408.607433 56.7280936,408.575276 C56.6520456,408.543766 56.5734627,408.520982 56.4904437,408.507085 L53.6609837,408.52793 C53.3720014,408.52793 53.1757025,408.594829 53.072404,408.727979 L53.0308945,408.791161 C53.0104566,408.826549 53,408.882621 53,408.959699 C53,409.037424 53.0204379,409.131954 53.0619474,409.244421 C53.4752999,410.23416 53.9239829,411.189158 54.4097394,412.108767 C54.8950205,413.029184 55.3164531,413.76959 55.6741954,414.331278 C56.0325715,414.893126 56.3969681,415.423304 56.7689694,415.921324 C57.1409708,416.419991 57.3871761,416.739455 57.5072685,416.8802 C57.6279947,417.020945 57.7227378,417.125655 57.7913394,417.195786 L58.0494272,417.448836 C58.2146731,417.617374 58.4572345,417.819362 58.7779035,418.054152 C59.0977803,418.289589 59.4525124,418.521309 59.8411492,418.749798 C60.2304198,418.97764 60.6827468,419.163791 61.1995562,419.307768 C61.7157319,419.451745 62.2182822,419.509756 62.7072074,419.481316 L63.8948233,419.481316 C64.1354834,419.460471 64.318157,419.382908 64.4418934,419.249757 L64.4827692,419.197402 C64.510495,419.155066 64.5364781,419.089945 64.5600846,419.002201 C64.5841665,418.91462 64.5965243,418.817989 64.5965243,418.712632 C64.5897117,418.410782 64.6120507,418.138825 64.6633831,417.89644 C64.7147155,417.654701 64.7734943,417.472266 64.8392441,417.349135 C64.9048355,417.226003 64.9783485,417.122585 65.0613675,417.038558 C65.1435944,416.954047 65.2025316,416.903469 65.2370701,416.885856 C65.2711332,416.868081 65.2983837,416.856123 65.3194554,416.848528 C65.4847013,416.792457 65.6789405,416.847397 65.9029652,417.012058 C66.1265145,417.177526 66.3362802,417.380645 66.5330543,417.62303 C66.7291947,417.865415 66.9651019,418.137533 67.2398252,418.439221 C67.515816,418.74091 67.7566346,418.965682 67.9625979,419.113375 L68.1693533,419.239577 C68.3073487,419.32425 68.4862199,419.401167 68.7066006,419.471297 C68.9268228,419.541912 69.1193193,419.559687 69.2845652,419.524299 L71.9284998,419.481962 C72.1895979,419.481962 72.3931847,419.437848 72.537359,419.350105 C72.682167,419.262361 72.767721,419.165731 72.7954468,419.06102 C72.823331,418.955502 72.8245985,418.836248 72.8009919,418.702452 C72.7762763,418.569301 72.7521945,418.475902 72.7285879,418.423386 C72.7045061,418.370384 72.682167,418.326916 72.6612538,418.291528 Z" id="Fill-1"></path>
        </g>
    </g>
</svg>