<?xml version="1.0" encoding="UTF-8" standalone="no"?>
<svg width="35px" height="35px" viewBox="0 0 35 35" version="1.1" xmlns="http://www.w3.org/2000/svg" xmlns:xlink="http://www.w3.org/1999/xlink">
    <!-- Generator: Sketch 3.7 (28169) - http://www.bohemiancoding.com/sketch -->
    <title>Combined Shape</title>
    <desc>Created with Sketch.</desc>
    <defs></defs>
    <g id="15.-Search-Text" stroke="none" stroke-width="1" fill="none" fill-rule="evenodd" fill-opacity="0.7">
        <g id="15.-Search-Text-2560" transform="translate(-1814.000000, -1760.000000)" fill="#FFFFFF">
            <path d="M1831.5,1795 C1841.16498,1795 1849,1787.16498 1849,1777.5 C1849,1767.83502 1841.16498,1760 1831.5,1760 C1821.83502,1760 1814,1767.83502 1814,1777.5 C1814,1787.16498 1821.83502,1795 1831.5,1795 Z M1840.66125,1783.12486 C1840.31714,1782.49304 1839.65916,1781.71725 1838.68876,1780.79764 L1838.65786,1780.76597 C1838.19682,1780.32677 1837.91766,1780.03881 1837.80074,1779.89177 C1837.58717,1779.61092 1837.53901,1779.3262 1837.65593,1779.03841 C1837.73879,1778.82059 1838.04821,1778.36118 1838.58546,1777.65859 C1838.86763,1777.28677 1839.09166,1776.98815 1839.25627,1776.76354 C1840.44769,1775.14829 1840.96386,1774.11621 1840.80543,1773.66683 L1840.74411,1773.56196 C1840.7026,1773.49894 1840.5963,1773.44077 1840.42424,1773.38841 C1840.25218,1773.33541 1840.0318,1773.32652 1839.76325,1773.36191 L1836.78883,1773.38276 C1836.74114,1773.36579 1836.6719,1773.36692 1836.58271,1773.38841 C1836.49303,1773.40926 1836.44788,1773.41992 1836.44788,1773.41992 L1836.39655,1773.44658 L1836.35567,1773.47809 C1836.32097,1773.49894 1836.28327,1773.53546 1836.24176,1773.58846 C1836.20088,1773.64098 1836.16634,1773.7027 1836.13909,1773.77283 C1835.81478,1774.62247 1835.44721,1775.41217 1835.0337,1776.14239 C1834.77878,1776.57788 1834.54478,1776.95535 1834.33137,1777.27481 C1834.1178,1777.59412 1833.93893,1777.82971 1833.79476,1777.98048 C1833.64995,1778.1314 1833.5194,1778.2526 1833.40232,1778.34341 C1833.28476,1778.43503 1833.19572,1778.47349 1833.13377,1778.45959 C1833.07182,1778.44505 1833.01305,1778.43115 1832.95807,1778.41726 C1832.86142,1778.35424 1832.78411,1778.26827 1832.72596,1778.1592 C1832.66719,1778.05061 1832.62758,1777.91358 1832.60714,1777.74827 C1832.5867,1777.58345 1832.57434,1777.44141 1832.57054,1777.32216 C1832.56753,1777.20291 1832.56927,1777.03372 1832.57609,1776.81654 C1832.5829,1776.59872 1832.5867,1776.45103 1832.5867,1776.37411 C1832.5867,1776.107 1832.59161,1775.81727 1832.60159,1775.50492 C1832.61205,1775.1924 1832.62076,1774.94501 1832.62758,1774.76257 C1832.63439,1774.58014 1832.63803,1774.38704 1832.63803,1774.18311 C1832.63803,1773.97983 1832.62568,1773.82018 1832.60159,1773.704 C1832.57799,1773.58846 1832.54155,1773.47615 1832.49323,1773.36692 C1832.4449,1773.25833 1832.3744,1773.17382 1832.28156,1773.11452 C1832.18872,1773.05457 1832.07369,1773.00722 1831.93617,1772.97183 C1831.57114,1772.8878 1831.1063,1772.8424 1830.54196,1772.8348 C1829.2615,1772.82091 1828.43892,1772.90558 1828.07373,1773.08801 C1827.92892,1773.16493 1827.79837,1773.27045 1827.68145,1773.4036 C1827.55771,1773.55824 1827.54028,1773.64275 1827.62948,1773.65665 C1828.04283,1773.71983 1828.33499,1773.87076 1828.50768,1774.10926 L1828.56947,1774.23611 C1828.61779,1774.32709 1828.66611,1774.48868 1828.7138,1774.72024 C1828.76196,1774.95196 1828.79302,1775.20824 1828.80648,1775.48908 C1828.84118,1776.00165 1828.84118,1776.44036 1828.80648,1776.80588 C1828.77258,1777.17059 1828.73978,1777.45531 1828.70873,1777.65859 C1828.67784,1777.86252 1828.63141,1778.02718 1828.56947,1778.15403 C1828.50768,1778.28039 1828.46617,1778.35731 1828.4451,1778.38575 C1828.42466,1778.41354 1828.40739,1778.43115 1828.39376,1778.4381 C1828.30409,1778.47349 1828.21125,1778.4911 1828.11461,1778.4911 C1828.01875,1778.4911 1827.90167,1778.44198 1827.76368,1778.34341 C1827.62631,1778.245 1827.48341,1778.10991 1827.33543,1777.9375 C1827.18761,1777.76589 1827.02046,1777.52544 1826.83415,1777.21616 C1826.64846,1776.90736 1826.45613,1776.54265 1826.25618,1776.1209 L1826.09094,1775.81549 C1825.98748,1775.61916 1825.84647,1775.33315 1825.6676,1774.95697 C1825.48873,1774.58143 1825.3303,1774.2185 1825.19294,1773.86688 C1825.1378,1773.71983 1825.05494,1773.60753 1824.94467,1773.5298 L1824.89334,1773.49829 C1824.85864,1773.4705 1824.80367,1773.44077 1824.72809,1773.40861 C1824.65205,1773.3771 1824.57346,1773.35432 1824.49044,1773.34042 L1821.66098,1773.36126 C1821.372,1773.36126 1821.1757,1773.42816 1821.0724,1773.56131 L1821.03089,1773.62449 C1821.01046,1773.65988 1821,1773.71595 1821,1773.79303 C1821,1773.87076 1821.02044,1773.96529 1821.06195,1774.07775 C1821.4753,1775.06749 1821.92398,1776.02249 1822.40974,1776.9421 C1822.89502,1777.86252 1823.31645,1778.60292 1823.6742,1779.16461 C1824.03257,1779.72646 1824.39697,1780.25664 1824.76897,1780.75466 C1825.14097,1781.25332 1825.38718,1781.57279 1825.50727,1781.71353 C1825.62799,1781.85428 1825.72274,1781.95899 1825.79134,1782.02912 L1826.04943,1782.28217 C1826.21467,1782.45071 1826.45723,1782.6527 1826.7779,1782.88749 C1827.09778,1783.12292 1827.45251,1783.35464 1827.84115,1783.58313 C1828.23042,1783.81097 1828.68275,1783.99712 1829.19956,1784.1411 C1829.71573,1784.28508 1830.21828,1784.34309 1830.70721,1784.31465 L1831.89482,1784.31465 C1832.13548,1784.2938 1832.31816,1784.21624 1832.44189,1784.08309 L1832.48277,1784.03074 C1832.5105,1783.9884 1832.53648,1783.92328 1832.56008,1783.83553 C1832.58417,1783.74795 1832.59652,1783.65132 1832.59652,1783.54597 C1832.58971,1783.24411 1832.61205,1782.97216 1832.66338,1782.72977 C1832.71472,1782.48803 1832.77349,1782.3056 1832.83924,1782.18247 C1832.90484,1782.05934 1832.97835,1781.95592 1833.06137,1781.87189 C1833.14359,1781.78738 1833.20253,1781.7368 1833.23707,1781.71919 C1833.27113,1781.70141 1833.29838,1781.68946 1833.31946,1781.68186 C1833.4847,1781.62579 1833.67894,1781.68073 1833.90297,1781.84539 C1834.12651,1782.01086 1834.33628,1782.21398 1834.53305,1782.45636 C1834.72919,1782.69875 1834.9651,1782.97087 1835.23983,1783.27255 C1835.51582,1783.57424 1835.75663,1783.79902 1835.9626,1783.94671 L1836.16935,1784.07291 C1836.30735,1784.15758 1836.48622,1784.2345 1836.7066,1784.30463 C1836.92682,1784.37525 1837.11932,1784.39302 1837.28457,1784.35763 L1839.9285,1784.3153 C1840.1896,1784.3153 1840.39318,1784.27118 1840.53736,1784.18344 C1840.68217,1784.09569 1840.76772,1783.99906 1840.79545,1783.89435 C1840.82333,1783.78884 1840.8246,1783.66958 1840.80099,1783.53579 C1840.77628,1783.40263 1840.75219,1783.30924 1840.72859,1783.25672 C1840.70451,1783.20372 1840.68217,1783.16025 1840.66125,1783.12486 Z" id="Combined-Shape"></path>
        </g>
    </g>
</svg>